<svg width="1205" height="867" xmlns="http://www.w3.org/2000/svg">

 <g>
  <title>background</title>
  <rect fill="none" id="canvas_background" height="402" width="582" y="-1" x="-1"/>
 </g>
 <g>
  <title>Layer 1</title>
  <g id="#0000001a">
   <path id="svg_1" d="m972.23,25.38c7.48,-1.71 14.69,2.47 19.93,7.45c10.51,11.45 15.84,26.86 17.07,42.17c1.25,9.67 0.21,19.57 -2.37,28.94c-3.14,9.51 -8.39,20.1 -18.77,23.12c-5.55,2.08 -11.4,-0.17 -16.15,-3.12c-9.95,-7.09 -15.8,-18.43 -19.19,-29.91c-4.46,-16.3 -5.2,-34.18 1.11,-50.11c3.11,-8.35 9.23,-16.52 18.37,-18.54m1.05,8.74c-1.82,9.52 -1.5,19.34 -0.37,28.92c0.18,3.49 2.74,6.21 3.28,9.62c-0.55,-0.1 -1.67,-0.3 -2.23,-0.4c-1.29,6.61 5.11,10.75 6,16.84c-1.7,-1.37 -3.31,-2.82 -4.95,-4.24c-0.74,5.78 6.04,8.58 7.09,13.94c-1.28,-0.59 -2.47,-1.46 -3.88,-1.64c-0.17,2.33 1.96,4.23 2.85,6.34c-1.1,-0.07 -2.18,-0.13 -3.26,-0.18c0.81,1.18 1.82,2.2 2.91,3.14c-0.92,0.75 -1.81,1.5 -2.7,2.26c0.74,0.07 2.24,0.2 2.98,0.26c0.56,0.61 1.14,1.22 1.73,1.83c0.32,-0.52 0.96,-1.55 1.28,-2.07c0.36,0.46 1.07,1.39 1.43,1.86c1.28,-1.19 2.48,-2.47 3.59,-3.83c-1.12,-0.24 -2.18,-0.66 -3.11,-1.31c1.16,-0.88 2.31,-1.78 3.49,-2.67c-1.38,-0.55 -2.83,-0.84 -4.25,-1.12c2.29,-5.04 6.04,-9.9 5.61,-15.72c-2.77,3.73 -3.61,8.56 -6.56,12.14c-1.02,-6.24 5.17,-11.32 3.26,-17.51c-1.56,-7.27 -3.06,-14.57 -4.03,-21.95c-1.42,-6.94 -1.4,-14.49 -5.47,-20.58c-0.95,-1.94 -2.92,-2.91 -4.69,-3.93z" opacity="0.1" fill="#f9f9f9"/>
   <path id="svg_2" d="m1105.39,148.43c13.93,-0.08 28.67,2.46 40.07,11.03c5.05,3.86 9.24,9.98 8.72,16.58c0.3,5.33 -3.04,9.91 -6.42,13.68c-10.43,9.71 -24.94,13.33 -38.82,14.2c-12.02,0.6 -24.27,-1.4 -35.18,-6.6c-6.53,-3.6 -13.1,-8.64 -15,-16.24c-2.42,-6.93 1.76,-13.94 6.47,-18.78c10.86,-9.85 25.92,-13.06 40.16,-13.87m-6.77,16.15c-6.67,1.11 -14,3.16 -17.91,9.15c-1.56,2.96 -2.34,6.27 -3.41,9.42c0.79,2.61 4.5,2.11 6.61,3.09c7.69,2.67 16.02,4.75 24.15,2.77c5.54,-0.41 9.95,-4.57 15.62,-4.4c0.32,-5.31 2.27,-10.27 4.21,-15.17c4.1,0.58 2.31,5.73 5.13,7.65c1.33,0.03 2.31,-1.08 3.45,-1.65c2.41,1.31 5.1,1.53 7.64,0.39c-0.35,-1.54 -1.51,-2.56 -2.78,-3.35c0.98,-1.71 2.64,-3.3 2.52,-5.42c-0.37,-1.36 -1,-3.34 -2.8,-3.04c-3.51,-0.01 -6.95,1.14 -9.87,3.06c0.09,0.45 0.28,1.35 0.37,1.8c-7.85,1.16 -14.8,-3.85 -22.48,-3.91c1.97,4.12 3.63,8.72 7.59,11.38c2.15,2.25 5.76,4.12 6.14,7.42c-3.28,0.42 -6.57,0.71 -9.84,1.05c-2.62,-0.28 -6.03,-0.98 -6.9,-3.86c-0.74,-4.28 4.68,-4.72 7.14,-6.91c-3.76,-1.25 -7.8,0.93 -11.57,-0.56c-2.43,-0.4 -6.16,-3.12 -3.94,-5.73c2.68,-2.4 6.03,-3.91 9.3,-5.36c-3.13,-1.45 -5.39,1.98 -8.37,2.18z" opacity="0.1" fill="#f9f9f9"/>
  </g>
  <g id="#f57212ff">
   <path id="svg_3" d="m279.49,169.14c13.09,-3.74 26.89,-6.51 40.51,-4.32c21.35,2.33 40.75,14.59 53.88,31.3c1.42,1.84 2.8,3.8 4.77,5.12l0.03,0.09c1.83,4.83 5.28,8.78 7.55,13.39c11.07,20.82 17.12,44.02 20.06,67.32c4.9,41.12 0.48,83.06 -10.51,122.88c-2.72,10.54 -8.49,19.88 -13.56,29.4c-1.98,3.54 -4.23,7.01 -5.08,11.04l-0.26,0.87l-0.76,-0.73c-5.27,-13.78 -10.87,-27.48 -17.89,-40.48c-8.96,-16.32 -20.08,-31.76 -34.47,-43.73c-14.97,-12.76 -33.21,-21.45 -52.35,-25.82c-21.17,-4.53 -43.11,-1.47 -63.75,4.2c-11.09,3.36 -22.1,7.13 -32.51,12.23c-12.5,5.28 -24.01,12.54 -35.59,19.54c1.88,-9.96 5.22,-19.56 7.74,-29.36c12.43,-45.06 33.01,-88.5 63.94,-123.86c18.59,-21.25 41.53,-39.34 68.25,-49.08z" fill="#f9f9f9"/>
  </g>
  <g id="#fc883aff">
   <path id="svg_4" d="m148.84,186.77c24.5,-10.22 50.56,-16.72 77.01,-19.14c17.82,-1.75 35.98,-1.76 53.64,1.51c-26.72,9.74 -49.66,27.83 -68.25,49.08c-30.93,35.36 -51.51,78.8 -63.94,123.86c-2.52,9.8 -5.86,19.4 -7.74,29.36c-3.07,-3.73 -5.09,-8.16 -7.94,-12.03c-9.76,-13.94 -21.04,-27.15 -35.14,-36.86c-9.49,-6.58 -21.08,-9.16 -32.4,-10.19c-16.56,-1.37 -32.61,4.82 -46.78,12.84c-3.68,1.78 -7,4.48 -11.07,5.32c25.58,-64.54 78.51,-117.31 142.61,-143.75z" fill="#f9f9f9"/>
   <path id="svg_5" d="m378.68,201.33c2.74,1.13 5.19,2.81 7.71,4.36c39.26,24.56 71.74,59.78 93.14,100.84c26.87,50.92 36.21,110.83 25.97,167.48c-0.37,1.91 -0.63,3.84 -0.83,5.78c-17.74,10.86 -35.43,21.81 -53.11,32.79l-0.16,-0.07c-0.4,-0.16 -1.19,-0.48 -1.59,-0.64c17.97,-11.02 35.79,-22.28 53.85,-33.13c-0.07,-0.22 -0.2,-0.66 -0.27,-0.88c-1.16,-4.49 -3.6,-8.46 -5.69,-12.54c-6.42,-12.48 -14.2,-25.15 -26.7,-32.33c-14.63,-8.4 -32.18,-13.52 -49.02,-9.76c-16.58,3.51 -30.63,13.46 -44.84,22.13c0.85,-4.03 3.1,-7.5 5.08,-11.04c5.07,-9.52 10.84,-18.86 13.56,-29.4c10.99,-39.82 15.41,-81.76 10.51,-122.88c-2.94,-23.3 -8.99,-46.5 -20.06,-67.32c-2.27,-4.61 -5.72,-8.56 -7.55,-13.39z" fill="#f9f9f9"/>
  </g>
  <g id="#00000026">
   <path id="svg_6" d="m953.37,221.47c8.02,-1.84 16.35,0.69 23.09,5.09c11.88,7.65 20.95,19.09 27.19,31.66c7.89,15.09 12.1,32.48 9.92,49.51c-1.31,8.99 -5.55,18.4 -13.96,22.77c-8.9,4.32 -19.43,1.37 -27.28,-3.83c-12.49,-7.82 -21.11,-20.29 -27.76,-33.18c-6.55,-13.77 -10.53,-29.13 -9.32,-44.45c0.79,-6.53 2.31,-13.21 6.01,-18.75c3.36,-3.69 6.92,-7.88 12.11,-8.82m3.11,11.42c-0.29,2.66 -0.86,5.38 -0.32,8.03c3.06,7.82 7.16,15.21 10.05,23.11c1.42,3.91 1.66,8.72 -0.94,12.2c-4.3,2.64 -9,4.63 -13.72,6.41c-0.62,2.81 -0.79,5.68 -0.56,8.55c4.79,-1.73 9.27,-4.2 13.96,-6.18c3.09,-1.26 6.11,-3.56 6.83,-7c1.15,-5.97 0.22,-12.21 -2.3,-17.7c-3.48,-8.33 -7.29,-16.51 -10.99,-24.73c-0.42,-1.09 -1.06,-2.03 -2.01,-2.69m27.5,34.14c-2.85,1.26 -6.33,2.54 -7.22,5.89c-2.59,7.71 -0.28,16.08 3.25,23.11c3.87,7.59 6.51,15.81 10.82,23.16c0.77,-2.54 1.7,-5.3 0.8,-7.93c-1.39,-4.28 -3.79,-8.14 -5.47,-12.31c-2.18,-5.47 -5.79,-10.72 -5.44,-16.86c0.12,-2.34 0.46,-5.33 2.9,-6.42c4.23,-2.26 8.61,-4.25 13.11,-5.91c0.2,-2.86 0.27,-5.72 0.19,-8.58c-4.34,1.89 -8.54,4.09 -12.94,5.85z" opacity="0.15" fill="#f9f9f9"/>
   <path id="svg_7" d="m1153.32,324.46c7.94,-1.13 16.88,-0.38 23.26,4.98c5.75,5.35 6.63,14.16 4.06,21.29c-5.05,15.19 -17.15,27.02 -30.6,35.12c-9.49,5.21 -20.01,9.42 -31.01,9.26c-6.76,0.05 -14.2,-2.08 -18.21,-7.91c-4.34,-5.76 -4.12,-13.67 -1.66,-20.15c2.75,-6.99 6.49,-13.76 12.06,-18.91c11.05,-12.04 25.92,-20.86 42.1,-23.68m-10.79,18.29c0.32,1.7 1.02,3.32 1.25,5.05c-1.36,1.13 -3.18,1.44 -4.74,2.16c-4.55,1.64 -8.34,4.99 -10.97,8.99c-1.98,3.33 -1.38,7.36 -0.1,10.82c-5.16,1.07 -10.34,3.4 -13.67,7.6c-1.25,1.47 0.52,3.64 1.9,1.85c3.36,-4.27 8.5,-6.53 13.81,-7.22c1.41,1.38 2.8,2.99 3.27,4.96c0.06,2.67 -1.84,4.78 -3.08,6.97c1.47,-0.4 2.95,-0.81 4.45,-1.2c0.75,-1.56 1.67,-3.08 2.12,-4.78c0.26,-2.39 -0.81,-4.64 -1.46,-6.87c6.82,-2.14 14.24,-5.75 17.04,-12.81c1.3,-2.96 0.34,-6.17 -1.03,-8.89c5.26,-1.29 10.93,-3.27 14.24,-7.82c0.76,-1.26 -0.92,-2.18 -1.95,-2.4c-2.9,5.24 -8.95,7.43 -14.62,7.84c-1.67,-1.43 -3.28,-3.59 -2.86,-5.9c0.68,-2.09 1.98,-3.89 2.92,-5.87c-3.99,0.27 -6.55,3.68 -6.52,7.52m10.53,-7.65c0.04,0.4 0.12,1.2 0.16,1.6c2.36,0.59 6.56,3.05 8.05,0.2c-2.51,-1.35 -5.44,-1.55 -8.21,-1.8m-2.84,2.26c-0.34,0.33 -1.01,0.99 -1.35,1.32c0.47,0.24 1.4,0.72 1.86,0.96c-0.54,0.34 -1.61,1.01 -2.15,1.35c1.93,2.62 5.77,2.78 8.76,2.39c-0.27,-0.52 -0.79,-1.55 -1.06,-2.07c1.63,-0.13 3.27,-0.25 4.93,-0.41c-0.37,-0.39 -1.1,-1.16 -1.46,-1.55c-3.19,-0.64 -6.35,-1.41 -9.53,-1.99m-28.21,39.16c0.48,0.31 1.46,0.92 1.95,1.23c-1.64,0.35 -4.82,-0.9 -5.15,1.46c1.42,1 3.28,0.87 4.94,1.24l0,0.3c-1.98,0.05 -3.95,0.15 -5.89,0.39c1.38,2.17 4.24,1.99 6.49,2.47c1.21,0.49 1.99,-0.4 2.73,-1.23c-0.52,-0.3 -1.57,-0.91 -2.09,-1.22c1.98,0.17 4.08,0.59 6,-0.19c-0.58,-0.56 -1.16,-1.11 -1.72,-1.66c0.58,-0.75 1.17,-1.49 1.77,-2.24c-2.87,-0.46 -6.73,-3.3 -9.03,-0.55z" opacity="0.15" fill="#f9f9f9"/>
   <path id="svg_8" d="m1131.37,360.33c2.85,-6.25 9.88,-9.11 16.26,-10.17c1.63,3.54 1.81,7.58 -0.63,10.81c-4.28,-1.48 -8.67,-3.49 -13.3,-2.83c2.92,3.25 7.95,2.19 11.73,3.83c-2.67,4.56 -8.33,4.66 -12.15,7.59c-2.11,-2.56 -3.37,-6.03 -1.91,-9.23m5.41,-4.14c2.78,0.95 7.29,4.25 9.4,0.92c-3.03,-0.7 -6.37,-2.5 -9.4,-0.92m-3.83,5.02c1.48,1.98 4.12,2.07 6.38,2.42c1.19,0.41 2.02,-0.48 2.78,-1.26c-2.98,-0.8 -6.06,-1.86 -9.16,-1.16z" opacity="0.15" fill="#f9f9f9"/>
  </g>
  <g id="#00000033">
   <path id="svg_9" d="m784.25,237.52c8.88,-0.12 17.03,5.05 22.29,11.95c10.03,12.96 14.56,29.38 15.52,45.55c0.9,15.98 -1.43,32.64 -9.53,46.67c-4.44,7.09 -10.91,13.81 -19.52,15.2c-8.07,1.39 -15.96,-2.68 -21.4,-8.4c-10.3,-10.61 -15.35,-25.17 -17.6,-39.52c-2.53,-17.35 -1.2,-35.74 6.36,-51.74c4.58,-9.53 12.68,-18.84 23.88,-19.71m-16.29,30.03l0.75,0.04c2.46,13.6 5.2,27.15 7.81,40.73c0.43,2.38 1.04,4.74 1.9,7c-0.09,0.39 -0.27,1.15 -0.35,1.53c6.08,-2.75 12.05,-5.79 17.79,-9.2c-3.93,-6.51 -8,-13.02 -12.71,-18.99l0.18,-0.73c4.69,-3.14 9.04,-6.75 13.49,-10.22c0.9,-0.49 1.83,-2.3 0.17,-2.5c-7.98,-2.74 -16.03,-5.31 -23.9,-8.36c-1.71,-0.47 -4.86,-2.24 -5.13,0.7m30.13,43.46c-5.4,3.72 -11.78,5.71 -17.04,9.62c8.92,2 17.81,4.42 26.9,5.58c-1.79,-15.07 -4.57,-30.01 -6.45,-45.07c-1.45,9.93 -1.69,20 -3.41,29.87z" opacity="0.2" fill="#f9f9f9"/>
   <path id="svg_10" d="m972.35,468.54c10.72,-2.8 21.74,1.46 30.62,7.35c19.3,13.11 33.03,33.9 38.44,56.52c1.21,8.09 1.83,16.63 -0.38,24.61c-2.14,7.6 -8.44,14.27 -16.38,15.63c-7.15,1.42 -14.42,-0.63 -20.96,-3.43c-11.02,-5.26 -20.01,-13.85 -27.68,-23.21c-9.51,-12.25 -16.67,-26.6 -18.98,-42.04c-0.65,-7.35 -1.05,-15.05 1.69,-22.06c2.2,-6.23 7.26,-11.42 13.63,-13.37m-0.05,10.76c-2.74,3.79 0.24,8.51 3.12,11.24c1.69,1.6 5.8,2.54 6.41,-0.55c0.83,-5.11 -3.76,-12.25 -9.53,-10.69m13.68,14.94c1.68,3.34 3.48,6.91 6.35,9.35c4.35,0.53 8.5,2.26 11.52,5.51c6.43,6.26 11.17,15.92 8.03,24.91c1.74,3.03 3.73,5.91 5.62,8.86c3.35,-2.47 3.5,-7.09 3.63,-10.88c-0.4,-10.15 -5.52,-19.47 -11.89,-27.11c-5.91,-6.35 -14.15,-12.02 -23.26,-10.64m-8.02,15.75c1.05,10.86 6.82,20.92 14.59,28.41c5.33,5.37 12.7,9.13 20.44,8.31c-1.03,-3.44 -3.25,-6.35 -5.41,-9.15c-4.83,-1.35 -10.03,-2.71 -13.33,-6.85c-5.6,-6.31 -10.33,-15.45 -6.91,-23.91c-1.69,-3.1 -3.76,-5.94 -5.72,-8.85c-3.71,2.75 -3.66,7.87 -3.66,12.04m40.29,39.29c-2.16,1.92 -1.2,5.29 0.15,7.42c1.43,2.66 3.93,5.77 7.35,5.01c3.36,-1.78 1.99,-6.2 0.32,-8.7c-1.57,-2.47 -4.78,-5.27 -7.82,-3.73z" opacity="0.2" fill="#f9f9f9"/>
  </g>
  <g id="#0000000f">
   <path id="svg_11" d="m767.96,267.55c0.27,-2.94 3.42,-1.17 5.13,-0.7c7.87,3.05 15.92,5.62 23.9,8.36c1.66,0.2 0.73,2.01 -0.17,2.5c-4.45,3.47 -8.8,7.08 -13.49,10.22c-5.09,-6.37 -8.85,-13.64 -13.57,-20.27c-0.26,-0.02 -0.79,-0.05 -1.05,-0.07l-0.75,-0.04z" opacity="0.06" fill="#f9f9f9"/>
   <path id="svg_12" d="m783.15,288.66c4.71,5.97 8.78,12.48 12.71,18.99c-5.74,3.41 -11.71,6.45 -17.79,9.2c0.08,-0.38 0.26,-1.14 0.35,-1.53c2.15,-8.78 2.7,-17.86 4.73,-26.66z" opacity="0.06" fill="#f9f9f9"/>
  </g>
  <g id="#dd6514ff">
   <path id="svg_13" d="m17.3,325.2c14.17,-8.02 30.22,-14.21 46.78,-12.84c11.32,1.03 22.91,3.61 32.4,10.19c14.1,9.71 25.38,22.92 35.14,36.86c2.85,3.87 4.87,8.3 7.94,12.03c11.58,-7 23.09,-14.26 35.59,-19.54c-0.9,6.8 -2.82,13.4 -4.39,20.06c-4.03,16 -7.63,32.11 -11.57,48.13c-1.2,4.49 -1.84,9.15 -3.73,13.43c-3.46,-4.12 -6.83,-8.32 -10.34,-12.41c-1.01,-13.14 -2.51,-26.24 -3.68,-39.37c-0.82,-3.29 0.84,-8.03 -2.38,-10.19c0.59,15.71 3.13,31.3 3.98,47.01c-21.18,-24.08 -44.46,-46.81 -72.12,-63.37c-0.67,-0.43 -1.35,-0.84 -2.04,-1.22c-19.09,-10.94 -40.02,-19 -61.86,-22.11l-1.56,-0.25c0.15,-0.27 0.46,-0.79 0.61,-1.05l0.16,-0.04c4.07,-0.84 7.39,-3.54 11.07,-5.32z" fill="#f9f9f9"/>
   <path id="svg_14" d="m358.23,405.02c7.02,13 12.62,26.7 17.89,40.48c-8.59,9.57 -16.64,19.6 -24.97,29.39c-8.97,2.28 -17.83,4.99 -26.58,7.99c-0.24,-1.09 -0.21,-2.14 0.11,-3.16c11.63,-24.68 23.6,-49.27 33.55,-74.7z" fill="#f9f9f9"/>
   <path id="svg_15" d="m421.98,423.23c16.84,-3.76 34.39,1.36 49.02,9.76c12.5,7.18 20.28,19.85 26.7,32.33c2.09,4.08 4.53,8.05 5.69,12.54c-21.42,-9.11 -44.48,-14.2 -67.75,-14.79c-0.53,-0.01 -1.58,-0.02 -2.1,-0.03c-26.57,-0.52 -52.91,4.22 -78.59,10.65c4.16,-6.31 9.57,-11.66 14.25,-17.58c2.48,-3.34 5.99,-6 7.68,-9.88l0.26,-0.87c14.21,-8.67 28.26,-18.62 44.84,-22.13z" fill="#f9f9f9"/>
  </g>
  <g id="#a37142ff">
   <path id="svg_16" d="m5.46,331.61l1.56,0.25c46.4,97.34 92.58,194.79 138.81,292.22l-1.4,0.3c-5.04,-9.12 -9.02,-18.82 -13.67,-28.16c-41.39,-87.2 -82.82,-174.38 -124.21,-261.58c-0.27,-0.76 -0.82,-2.28 -1.09,-3.03z" fill="#f9f9f9"/>
   <path id="svg_17" d="m139.06,371.55c3.22,2.16 1.56,6.9 2.38,10.19c1.17,13.13 2.67,26.23 3.68,39.37c1.29,12.79 2.57,25.57 3.63,38.38c-0.51,-0.11 -1.52,-0.33 -2.03,-0.44c0.22,-5.74 -0.9,-11.42 -1.21,-17.13c-1.06,-7.77 -1.13,-15.64 -2.47,-23.36c-0.85,-15.71 -3.39,-31.3 -3.98,-47.01z" fill="#f9f9f9"/>
   <path id="svg_18" d="m351.15,474.89c8.33,-9.79 16.38,-19.82 24.97,-29.39l0.76,0.73c-1.69,3.88 -5.2,6.54 -7.68,9.88c-4.68,5.92 -10.09,11.27 -14.25,17.58c-0.78,0.59 -1.51,1.24 -2.18,1.96c-29.95,35.4 -59.7,70.98 -89.72,106.32c-0.58,0.08 -1.73,0.24 -2.31,0.32c30.02,-35.89 60.3,-71.58 90.41,-107.4z" fill="#f9f9f9"/>
   <path id="svg_19" d="m147.33,461.14c0.57,-0.6 1.14,-1.19 1.71,-1.77c4.58,53.47 10.21,106.88 15.03,160.34c0.76,-0.16 2.26,-0.49 3.02,-0.65c-1.57,0.38 -3.13,0.77 -4.69,1.15c-4.84,-53.04 -10.12,-106.04 -15.07,-159.07z" fill="#f9f9f9"/>
   <path id="svg_20" d="m117.17,663.19c1.87,-0.9 3.95,-1.13 5.96,-1.5c-0.62,2.79 -1.41,5.55 -2.26,8.29c3.4,-0.04 8.35,-0.7 9.68,3.42c0.86,6.97 -5.14,12.18 -10.65,15.24c2.17,0.62 5.44,0.61 6.16,3.31c0.81,4.08 -1.57,8 -4.18,10.95c-3.54,4.1 -8.46,6.58 -13.39,8.61c-0.89,2.7 -1.75,5.4 -2.65,8.1c-1.99,0.4 -3.97,0.84 -5.95,1.31c0.68,-2.54 1.38,-5.08 2.06,-7.62c-1.87,0.38 -3.74,0.76 -5.61,1.15c-1.05,2.65 -1.94,5.37 -2.74,8.12c-1.94,0.33 -3.89,0.67 -5.83,1.01c0.55,-2.32 1.1,-4.64 1.62,-6.95c-0.54,0 -1.62,-0.01 -2.16,-0.02c3.91,-13.73 8.28,-27.34 12.17,-41.08c4.6,-0.9 3.59,-6.34 5.5,-9.5c1.86,-0.99 4,-1.05 6.06,-1.19c-0.88,2.61 -1.73,5.25 -2.01,8.02c1.83,-0.44 3.69,-0.82 5.45,-1.5c1.3,-2.59 1.48,-5.59 2.77,-8.17m-11.46,16.66c-1.35,3.59 -2.15,7.38 -3.38,11.03c4.89,-1.43 10.28,-1.72 14.6,-4.66c2.47,-1.55 4.34,-4.36 4.2,-7.35c0.09,-2.75 -3.37,-2.19 -5.14,-1.86c-3.43,0.86 -7.18,1.14 -10.28,2.84m-4.68,16.54c-1.95,3.65 -2.62,7.98 -3.67,12c4.07,-0.74 8.13,-1.63 12.07,-2.91c4.61,-1.61 9.01,-6.16 7.7,-11.4c-5.47,-0.96 -10.89,0.86 -16.1,2.31z" fill="#f9f9f9"/>
   <path id="svg_21" d="m216.67,689.94c0.51,-2.26 1.24,-4.45 2.17,-6.56c1.39,1.21 2.92,2.33 3.99,3.87c0.26,3 -1.93,5.7 -1.79,8.73c0.92,1.69 2.49,2.88 3.92,4.12c0.89,-2.64 1.68,-5.32 2.42,-8.01c1.51,1.34 3.13,2.6 4.27,4.3c-0.05,2.97 -1.84,5.67 -1.98,8.67c1.59,3.39 4.16,6.31 5.15,9.99c1.2,4.16 1.38,9.02 -0.97,12.83c-1.56,2.05 -4.42,1.18 -6.62,1.33c2.25,4.23 4.48,8.85 3.62,13.8c-0.32,3.38 -2.98,7.55 -6.85,6.94c-2.54,-0.38 -4.69,-1.94 -6.96,-3.03c-0.85,2.39 -1.62,4.81 -2.34,7.25c-1.63,-1.33 -3.1,-2.83 -4.42,-4.45c0.67,-2.54 1.58,-5.03 1.87,-7.64c-0.89,-1.74 -2.43,-2.97 -3.94,-4.14c-0.79,2.34 -1.58,4.68 -2.43,7.01c-1.52,-1.42 -3.4,-2.71 -4.05,-4.77c0.41,-2.34 1.18,-4.59 1.83,-6.86c-2.28,-2.53 -0.65,-5.8 0.11,-8.6c3.66,-11.43 6.75,-23.03 10.48,-34.44c0.63,-0.08 1.89,-0.25 2.52,-0.34m1.47,12.06c-1.12,3.63 -2.7,7.19 -3.02,11.02c0.61,1.52 2.06,2.51 3.13,3.73c2.63,2.55 5.24,6.42 9.49,5.24c0.71,-2.65 1.83,-5.56 0.58,-8.23c-2.34,-4.7 -6.22,-8.42 -10.18,-11.76m-5.01,16.85c-1.07,4 -3.12,7.89 -3.2,12.06c1.98,2.7 4.45,4.98 6.81,7.35c1.61,1.38 3.62,3.34 5.93,2.46c1.76,-1.76 2.26,-4.57 1.8,-6.94c-1.42,-6.39 -6.88,-10.61 -11.34,-14.93z" fill="#f9f9f9"/>
   <path id="svg_22" d="m115.05,749.16c13.94,-3.56 28.06,-6.43 41.9,-10.33c23.14,24.26 46.29,48.52 69.34,72.87c7.18,7.18 13.99,14.71 20.93,22.11c-11.43,3.29 -23.14,5.65 -34.68,8.59c-31.07,7.47 -62.14,14.96 -93.21,22.42c-27.07,-28.32 -54,-56.76 -81.06,-85.09c-2.98,-3.23 -6.23,-6.22 -8.98,-9.66c5.9,-1.98 12.03,-3.1 18.05,-4.62c22.58,-5.42 45.14,-10.87 67.71,-16.29z" fill="#f9f9f9"/>
  </g>
  <g id="#b5520fff">
   <path id="svg_23" d="m207.66,339.67c20.64,-5.67 42.58,-8.73 63.75,-4.2c19.14,4.37 37.38,13.06 52.35,25.82c14.39,11.97 25.51,27.41 34.47,43.73c-9.95,25.43 -21.92,50.02 -33.55,74.7c-0.32,1.02 -0.35,2.07 -0.11,3.16c-1,0.17 -2.06,0.33 -2.2,-0.97c-4.36,-11.74 -7.46,-23.91 -11.26,-35.84c-3.33,-10.69 -7.6,-21.5 -15.45,-29.72c-10.24,-10.75 -24.53,-16.28 -38.43,-20.55c-7.84,-2.41 -16.01,-3.79 -24.21,-3.85c-11.35,0.41 -22.42,4.08 -32.15,9.87c-15.92,9.37 -29.6,21.97 -44.89,32.27c-0.13,-0.14 -0.39,-0.42 -0.52,-0.57c1.89,-4.28 2.53,-8.94 3.73,-13.43c3.94,-16.02 7.54,-32.13 11.57,-48.13c1.57,-6.66 3.49,-13.26 4.39,-20.06c10.41,-5.1 21.42,-8.87 32.51,-12.23z" fill="#f9f9f9"/>
  </g>
  <g id="#bc8a64ff">
   <path id="svg_24" d="m68.88,353.97c0.69,0.38 1.37,0.79 2.04,1.22c14.1,46.01 28.83,91.84 43.15,137.79c13.44,42.99 27.18,85.88 40.41,128.93l-1.76,-0.05c-27.56,-87.99 -55.32,-175.93 -82.91,-263.92c-0.37,-1.31 -0.66,-2.64 -0.93,-3.97z" fill="#f9f9f9"/>
   <path id="svg_25" d="m433.54,463.04c0.52,0.01 1.57,0.02 2.1,0.03c-1.95,2.25 -4.24,4.17 -6.53,6.06c-68.14,58.3 -136.27,116.61 -204.42,174.91c1.38,1.43 2.77,2.86 4.17,4.28c73.61,-45.55 147.26,-91.05 220.95,-136.45c0.4,0.16 1.19,0.48 1.59,0.64c-31.1,19.65 -62.58,38.71 -93.82,58.13c-37.04,22.89 -74.1,45.75 -111.14,68.65c-5.54,3.28 -10.87,6.95 -16.55,10.02c18.16,19.49 36.68,38.64 55.01,57.98c-12.16,41.05 -24.28,82.1 -36.42,123.15c-0.34,1.22 -0.65,2.46 -0.93,3.72l-0.33,-0.35c-6.94,-7.4 -13.75,-14.93 -20.93,-22.11c-23.05,-24.35 -46.2,-48.61 -69.34,-72.87c0.62,-3.73 1.74,-7.34 2.89,-10.92c7.08,-23.95 14.18,-47.89 21.24,-71.84c4.48,-14.59 8.32,-29.4 13.29,-43.83c7.25,7.61 14.52,15.2 21.75,22.84c15.02,-17.47 29.69,-35.24 44.62,-52.79c0.58,-0.08 1.73,-0.24 2.31,-0.32c-15.25,18.1 -30.43,36.25 -45.78,54.26c2.08,2.17 4.13,4.36 6.08,6.64c70.07,-59.94 140.11,-119.9 210.19,-179.83m-216.87,226.9c-0.63,0.09 -1.89,0.26 -2.52,0.34c-3.73,11.41 -6.82,23.01 -10.48,34.44c-0.76,2.8 -2.39,6.07 -0.11,8.6c-0.65,2.27 -1.42,4.52 -1.83,6.86c0.65,2.06 2.53,3.35 4.05,4.77c0.85,-2.33 1.64,-4.67 2.43,-7.01c1.51,1.17 3.05,2.4 3.94,4.14c-0.29,2.61 -1.2,5.1 -1.87,7.64c1.32,1.62 2.79,3.12 4.42,4.45c0.72,-2.44 1.49,-4.86 2.34,-7.25c2.27,1.09 4.42,2.65 6.96,3.03c3.87,0.61 6.53,-3.56 6.85,-6.94c0.86,-4.95 -1.37,-9.57 -3.62,-13.8c2.2,-0.15 5.06,0.72 6.62,-1.33c2.35,-3.81 2.17,-8.67 0.97,-12.83c-0.99,-3.68 -3.56,-6.6 -5.15,-9.99c0.14,-3 1.93,-5.7 1.98,-8.67c-1.14,-1.7 -2.76,-2.96 -4.27,-4.3c-0.74,2.69 -1.53,5.37 -2.42,8.01c-1.43,-1.24 -3,-2.43 -3.92,-4.12c-0.14,-3.03 2.05,-5.73 1.79,-8.73c-1.07,-1.54 -2.6,-2.66 -3.99,-3.87c-0.93,2.11 -1.66,4.3 -2.17,6.56z" fill="#f9f9f9"/>
   <path id="svg_26" d="m218.14,702c3.96,3.34 7.84,7.06 10.18,11.76c1.25,2.67 0.13,5.58 -0.58,8.23c-4.25,1.18 -6.86,-2.69 -9.49,-5.24c-1.07,-1.22 -2.52,-2.21 -3.13,-3.73c0.32,-3.83 1.9,-7.39 3.02,-11.02z" fill="#f9f9f9"/>
   <path id="svg_27" d="m213.13,718.85c4.46,4.32 9.92,8.54 11.34,14.93c0.46,2.37 -0.04,5.18 -1.8,6.94c-2.31,0.88 -4.32,-1.08 -5.93,-2.46c-2.36,-2.37 -4.83,-4.65 -6.81,-7.35c0.08,-4.17 2.13,-8.06 3.2,-12.06z" fill="#f9f9f9"/>
  </g>
  <g id="#0000004d">
   <path id="svg_28" d="m652.38,388.44c7.18,-1.23 14.81,1.04 19.9,6.3c8.18,8.23 11.4,19.95 13.01,31.12c1.71,16.22 -1.17,32.63 -6.64,47.9c-5.21,13.13 -12.96,25.85 -24.74,34.05c-7.26,5.13 -17.39,6.99 -25.47,2.67c-9.05,-4.5 -13.76,-14.24 -16.58,-23.46c-4.17,-15.54 -3.58,-32.16 0.59,-47.64c3.44,-14.33 9.99,-28.14 20,-39.06c5.4,-5.64 12.14,-10.4 19.93,-11.88m-14.94,31.6c-0.68,3.99 -1.84,7.88 -2.35,11.89c2.2,0.4 4.61,1.94 6.81,1.03c1.62,-3.66 1.77,-7.81 2.88,-11.65c-2.4,-0.7 -4.85,-1.13 -7.34,-1.27m12.54,2.2c-1.37,4.05 -2.07,8.29 -2.83,12.5c4.06,0.93 8.19,1.59 12.15,2.94c-1.32,6.8 -3.33,13.48 -4.29,20.34c1.22,2.07 4.68,1.36 6.86,1.95c2.27,-11.2 5.47,-22.25 7.06,-33.56c-6.36,-1.19 -12.66,-2.68 -18.95,-4.17m-16.98,18.81c-2.62,10.97 -5.21,21.98 -7.29,33.06c6.15,2.2 12.82,2.91 19.16,4.56c1.18,-3.95 1.95,-7.99 2.76,-12.03c-3.92,-1.65 -8.24,-1.8 -12.18,-3.35c1.32,-7.05 3.49,-13.91 4.49,-21.02c-2.27,-0.67 -4.59,-1.06 -6.94,-1.22m12.12,3.14c-1.25,3.52 -1.75,7.25 -2.46,10.9c1.16,2.22 4.31,1.85 6.45,2.28c1.94,-3.63 2.31,-8.23 2.88,-12.37c-2.24,-0.23 -4.83,-1.97 -6.87,-0.81m5.04,35.57c2.22,0.47 4.49,1.62 6.79,1.11c1.58,-3.69 2.22,-7.77 2.38,-11.77c-2.05,-0.43 -4.03,-1.05 -5.95,-1.86c-2.19,3.76 -2.26,8.34 -3.22,12.52z" opacity="0.3" fill="#f9f9f9"/>
  </g>
  <g id="#00000040">
   <path id="svg_29" d="m857.33,401.46c7.24,-1.02 15.32,0.17 20.83,5.36c7.61,6.7 9.27,17.6 8.45,27.23c-1.32,14.24 -7.36,27.68 -15.14,39.54c-9.8,14.03 -22.41,26.73 -38.26,33.72c-8.71,3.76 -19.12,5.63 -28.01,1.42c-7.44,-3.27 -11.57,-11.28 -12.8,-18.97c-2.05,-13.32 1.95,-26.77 7.62,-38.73c8.13,-16.18 20.01,-30.78 35.31,-40.66c6.61,-4.46 14.13,-7.56 22,-8.91m-12.17,18.72c-2.63,2.85 -4.07,6.53 -6.07,9.8c-8.72,15 -17.31,30.07 -26.14,45.01c-0.42,1.22 -1.97,2.61 -0.93,3.91c3.15,1.87 6.85,3.54 10.6,2.67c11.12,-1.97 22.25,-3.88 33.38,-5.83c1.5,-0.37 3.97,-0.7 3.74,-2.79c-0.27,-3.08 -1.3,-6.02 -1.95,-9.02c-3.76,-14.52 -7.21,-29.13 -11.13,-43.59c-0.37,-0.04 -1.13,-0.12 -1.5,-0.16z" opacity="0.25" fill="#f9f9f9"/>
   <path id="svg_30" d="m845.43,427.74c1.67,3.56 2.35,7.46 3.35,11.24c2.35,9.74 5.04,19.4 7.08,29.21c-3.35,-1.47 -5.43,-4.65 -7.87,-7.22c-2.36,-2.95 -5.4,-5.28 -7.63,-8.31c1.6,-8.31 3.23,-16.64 5.07,-24.92z" opacity="0.25" fill="#f9f9f9"/>
   <path id="svg_31" d="m837.18,437.97c1.76,-2.74 3.06,-5.87 5.45,-8.16c-0.98,6.45 -2.69,12.76 -3.65,19.22c-0.34,3.85 -3.43,6.4 -6.07,8.83c-5.03,4.26 -9.05,9.75 -14.67,13.26c5.93,-11.27 12.71,-22.05 18.94,-33.15z" opacity="0.25" fill="#f9f9f9"/>
   <path id="svg_32" d="m838.52,456.15c3.58,2.84 6.46,6.43 9.75,9.59c2.02,2.17 4.58,3.99 5.76,6.83c-7,1.36 -14.07,2.36 -21.07,3.75c-3.07,0.54 -6.13,1.41 -9.26,1.13c4.8,-7.19 9.84,-14.23 14.82,-21.3z" opacity="0.25" fill="#f9f9f9"/>
   <path id="svg_33" d="m816.18,476.63c4.28,-4.71 9.02,-9.03 14.09,-12.88c-2.08,4.51 -5.53,8.19 -8.1,12.42c-1.11,2.76 -3.98,0.87 -5.99,0.46z" opacity="0.25" fill="#f9f9f9"/>
  </g>
  <g id="#00000099">
   <path id="svg_34" d="m478.44,590.55c5.2,-0.65 10.94,-0.45 15.41,2.62c7.12,4.35 10.4,12.86 11.33,20.81c1.61,17.76 -4.64,35.34 -13.9,50.27c-7.47,11.54 -17.19,22.16 -29.73,28.21c-7.6,3.71 -17.16,5.13 -24.84,0.85c-6.18,-3.72 -9.51,-10.56 -11.25,-17.31c-1.88,-11.86 -0.07,-24.14 4.26,-35.27c5.23,-14.36 13.84,-27.57 25.26,-37.77c6.72,-5.83 14.57,-10.84 23.46,-12.41m-18.77,29.16c-3.7,9.81 -7.98,19.41 -11.56,29.28c6.06,-6.41 10.85,-13.92 16.79,-20.45c5.8,-0.13 11.59,0.7 17.39,0.4c-5.29,-7.13 -11.23,-13.76 -17.34,-20.18l0.02,-0.87c-2.46,3.59 -3.48,7.9 -5.3,11.82m4.66,12.35l0.12,0.71c-5.16,6.1 -10.08,12.4 -14.82,18.82c-0.92,0.15 -1.11,1.28 -1.62,1.92c5.76,0.04 11.5,0.56 17.25,0.73c4.46,-4.28 7.8,-9.55 11.73,-14.29c1.55,-1.89 3.51,-3.6 4.13,-6.06c0.19,-0.36 0.57,-1.08 0.76,-1.43c-5.86,0.21 -11.7,-0.5 -17.55,-0.4m1.04,25.94c-5.78,-0.52 -11.59,-0.64 -17.38,-0.85c3.29,4.6 7.13,8.77 10.82,13.05c2.29,2.77 4.47,5.67 7.25,7.99l-0.03,-1.01c5.3,-11.65 9.59,-23.72 14.56,-35.5c0.63,-1.51 0.99,-3.1 1.24,-4.7c-5.59,6.92 -11.1,13.91 -16.46,21.02z" opacity="0.6" fill="#f9f9f9"/>
  </g>
  <g id="#00000066">
   <path id="svg_35" d="m676.51,608.64c19.25,-1.92 39.53,1.45 56.06,11.87c7.1,4.75 14.06,11.52 15.15,20.4c1.07,6.9 -2.72,13.56 -7.91,17.83c-8.57,7.28 -19.93,9.99 -30.84,11.31c-18.41,1.51 -37.64,-1.75 -53.53,-11.48c-5.69,-3.77 -11.24,-8.42 -14.13,-14.76c-3.16,-6.43 -2.44,-14.76 2.41,-20.17c8,-9.7 20.85,-13.2 32.79,-15m5.56,23.59c-2.32,0.93 -4.73,-0.28 -7.07,-0.4c-2.51,0.25 -4.89,1.22 -7.02,2.55c0.81,0.27 2.43,0.82 3.24,1.1c-3.92,2.1 -8.44,2.75 -12.3,4.98c10.84,5.65 21.31,12 32.17,17.6c3.55,0.44 7,-1.7 10.29,-2.96c-5.92,-4.19 -12.83,-6.73 -18.67,-11c3.81,-1.39 7.75,-3.91 11.95,-2.68c3.2,0.97 6.22,-0.86 9.14,-1.93c-0.64,-0.4 -1.92,-1.22 -2.57,-1.63c4.95,-2.48 10.47,-3.46 15.46,-5.82c-4.02,-2.74 -8.42,-4.86 -12.67,-7.19c-7.39,2.23 -14.65,4.87 -21.95,7.38z" opacity="0.4" fill="#f9f9f9"/>
  </g>
  <g id="#0000002e">
   <path id="svg_36" d="m464.95,608.76c6.11,6.42 12.05,13.05 17.34,20.18c-5.8,0.3 -11.59,-0.53 -17.39,-0.4c0.1,-6.6 -0.31,-13.2 0.05,-19.78z" opacity="0.18" fill="#f9f9f9"/>
   <path id="svg_37" d="m464.33,632.06c5.85,-0.1 11.69,0.61 17.55,0.4c-0.19,0.35 -0.57,1.07 -0.76,1.43c-4.5,2.87 -8.91,5.89 -13.3,8.93c-4.1,2.29 -2.27,7.61 -2.56,11.42c-5.75,-0.17 -11.49,-0.69 -17.25,-0.73c0.51,-0.64 0.7,-1.77 1.62,-1.92c5.52,-1 10.37,-4.16 15.22,-6.82c0.7,-3.98 0.27,-8.05 -0.4,-12l-0.12,-0.71z" opacity="0.18" fill="#f9f9f9"/>
   <path id="svg_38" d="m465.37,658c5.36,-7.11 10.87,-14.1 16.46,-21.02c-0.25,1.6 -0.61,3.19 -1.24,4.7c-4.97,11.78 -9.26,23.85 -14.56,35.5c-0.38,-6.39 -0.25,-12.8 -0.66,-19.18z" opacity="0.18" fill="#f9f9f9"/>
  </g>
  <g id="#f6c388ff">
   <path id="svg_39" d="m167.09,619.06c9.08,-2.32 18.3,-4.13 27.28,-6.82c-4.97,14.43 -8.81,29.24 -13.29,43.83c-7.06,23.95 -14.16,47.89 -21.24,71.84c-1.15,3.58 -2.27,7.19 -2.89,10.92c-13.84,3.9 -27.96,6.77 -41.9,10.33c-22.57,5.42 -45.13,10.87 -67.71,16.29c-6.02,1.52 -12.15,2.64 -18.05,4.62l-0.81,0.03l-0.22,-0.67c12.33,-42.03 24.85,-84.01 37.21,-126.03c26.36,-6.16 52.69,-12.47 78.96,-19.02l1.4,-0.3c2.33,-0.5 4.66,-0.99 7,-1.47l-0.11,-0.75l1.76,0.05c2.68,-0.37 5.29,-1.09 7.92,-1.7c1.56,-0.38 3.12,-0.77 4.69,-1.15m-49.92,44.13c-1.29,2.58 -1.47,5.58 -2.77,8.17c-1.76,0.68 -3.62,1.06 -5.45,1.5c0.28,-2.77 1.13,-5.41 2.01,-8.02c-2.06,0.14 -4.2,0.2 -6.06,1.19c-1.91,3.16 -0.9,8.6 -5.5,9.5c-3.89,13.74 -8.26,27.35 -12.17,41.08c0.54,0.01 1.62,0.02 2.16,0.02c-0.52,2.31 -1.07,4.63 -1.62,6.95c1.94,-0.34 3.89,-0.68 5.83,-1.01c0.8,-2.75 1.69,-5.47 2.74,-8.12c1.87,-0.39 3.74,-0.77 5.61,-1.15c-0.68,2.54 -1.38,5.08 -2.06,7.62c1.98,-0.47 3.96,-0.91 5.95,-1.31c0.9,-2.7 1.76,-5.4 2.65,-8.1c4.93,-2.03 9.85,-4.51 13.39,-8.61c2.61,-2.95 4.99,-6.87 4.18,-10.95c-0.72,-2.7 -3.99,-2.69 -6.16,-3.31c5.51,-3.06 11.51,-8.27 10.65,-15.24c-1.33,-4.12 -6.28,-3.46 -9.68,-3.42c0.85,-2.74 1.64,-5.5 2.26,-8.29c-2.01,0.37 -4.09,0.6 -5.96,1.5z" fill="#f9f9f9"/>
   <path id="svg_40" d="m105.71,679.85c3.1,-1.7 6.85,-1.98 10.28,-2.84c1.77,-0.33 5.23,-0.89 5.14,1.86c0.14,2.99 -1.73,5.8 -4.2,7.35c-4.32,2.94 -9.71,3.23 -14.6,4.66c1.23,-3.65 2.03,-7.44 3.38,-11.03z" fill="#f9f9f9"/>
   <path id="svg_41" d="m101.03,696.39c5.21,-1.45 10.63,-3.27 16.1,-2.31c1.31,5.24 -3.09,9.79 -7.7,11.4c-3.94,1.28 -8,2.17 -12.07,2.91c1.05,-4.02 1.72,-8.35 3.67,-12z" fill="#f9f9f9"/>
  </g>
  <g id="#0000007b">
   <path id="svg_42" d="m467.82,642.82c4.39,-3.04 8.8,-6.06 13.3,-8.93c-0.62,2.46 -2.58,4.17 -4.13,6.06c-3.93,4.74 -7.27,10.01 -11.73,14.29c0.29,-3.81 -1.54,-9.13 2.56,-11.42z" opacity="0.48" fill="#f9f9f9"/>
  </g>
 </g>
</svg>